<?xml version="1.0" standalone="no"?>
<!DOCTYPE svg PUBLIC "-//W3C//DTD SVG 20010904//EN"
 "http://www.w3.org/TR/2001/REC-SVG-20010904/DTD/svg10.dtd">
<svg version="1.0" xmlns="http://www.w3.org/2000/svg"
 width="1600.000000pt" height="1600.000000pt" viewBox="0 0 1600.000000 1600.000000"
 preserveAspectRatio="xMidYMid meet">

<g transform="translate(0.000000,1600.000000) scale(0.100000,-0.100000)"
fill="#000000" stroke="none">
<path d="M8600 12833 c-8 -3 -29 -12 -46 -20 -17 -7 -57 -16 -90 -18 -32 -2
-65 -4 -71 -4 -10 -1 -13 -55 -13 -235 0 -146 -4 -237 -10 -241 -18 -11 -11
-21 23 -32 21 -6 24 -9 7 -6 -24 3 -24 3 4 -13 22 -12 30 -13 36 -4 5 9 9 9
14 1 4 -6 4 -11 -1 -11 -19 -1 24 -20 44 -20 12 0 23 -4 25 -9 2 -5 56 -30
121 -55 490 -193 991 -442 1037 -514 19 -28 2 63 -26 148 -75 224 -247 485
-451 681 -208 200 -394 325 -524 349 -56 11 -57 11 -79 3z m-190 -516 c0 -7
-10 -13 -21 -14 -21 -2 -21 -1 -3 12 24 18 24 18 24 2z"/>
<path d="M8295 12450 c-3 -5 3 -10 15 -10 12 0 18 5 15 10 -3 6 -10 10 -15 10
-5 0 -12 -4 -15 -10z"/>
<path d="M8300 12364 c0 -8 5 -12 10 -9 6 3 10 10 10 16 0 5 -4 9 -10 9 -5 0
-10 -7 -10 -16z"/>
<path d="M9781 12145 c20 -27 80 -124 134 -215 54 -91 121 -201 148 -245 285
-451 412 -756 433 -1037 l7 -90 64 -79 c35 -43 99 -116 141 -160 42 -45 106
-112 142 -150 36 -38 146 -159 245 -268 99 -110 183 -200 186 -200 3 -1 5 9 2
22 -2 12 -21 202 -43 422 -22 220 -47 465 -56 545 -19 167 -15 269 16 420 40
199 103 353 178 434 30 32 96 65 130 66 12 0 22 4 22 8 0 13 -194 22 -473 22
-215 0 -259 3 -325 20 -309 79 -655 253 -871 439 -29 25 -68 57 -85 71 l-31
25 36 -50z"/>
<path d="M8213 11873 c9 -2 23 -2 30 0 6 3 -1 5 -18 5 -16 0 -22 -2 -12 -5z"/>
<path d="M8377 11843 c-3 -4 -3 -20 0 -36 4 -19 11 -27 25 -27 17 0 18 3 8 15
-9 10 -9 15 -1 15 6 0 11 -4 11 -10 0 -5 8 -10 18 -11 13 0 11 -3 -6 -10 -13
-5 -20 -14 -17 -19 4 -6 -3 -19 -14 -29 -20 -18 -21 -27 -21 -285 0 -171 4
-266 10 -266 6 0 10 -5 10 -11 0 -5 -4 -8 -9 -5 -5 4 -8 -2 -6 -11 2 -10 9
-49 16 -88 6 -38 16 -75 21 -82 5 -7 7 -17 3 -23 -3 -5 -2 -10 4 -10 6 0 8 -6
5 -14 -3 -8 0 -23 6 -33 10 -16 11 -16 7 5 -3 13 -1 20 5 16 5 -4 8 -17 5 -30
-2 -14 0 -27 5 -30 4 -3 6 -10 2 -15 -3 -6 6 -28 21 -50 14 -23 24 -43 21 -46
-3 -3 1 -18 8 -32 8 -14 27 -52 44 -85 81 -160 226 -312 363 -382 37 -18 64
-24 115 -24 61 0 68 2 98 33 96 95 130 419 91 846 l-15 165 -42 55 c-108 142
-395 387 -429 365 -7 -4 -9 -3 -6 3 6 9 -125 77 -163 85 -8 2 -18 7 -21 12 -4
5 -18 9 -33 9 -14 0 -26 3 -26 7 0 9 -42 21 -49 15 -2 -3 7 -9 20 -14 17 -7
19 -10 7 -10 -10 -1 -27 8 -38 19 -11 11 -20 17 -20 14 0 -4 -6 -1 -14 5 -8 7
-16 8 -19 4z m103 -876 c0 -5 -4 -5 -10 -2 -5 3 -10 14 -10 23 0 15 2 15 10 2
5 -8 10 -19 10 -23z"/>
<path d="M8323 11187 c-3 -5 -2 -11 1 -14 3 -4 6 -1 6 6 0 7 4 10 8 7 4 -2 14
-1 22 4 11 7 9 9 -8 7 -13 -1 -26 -5 -29 -10z"/>
<path d="M8246 11055 c-9 -26 -7 -32 5 -12 6 10 9 21 6 23 -2 3 -7 -2 -11 -11z"/>
<path d="M9796 10778 c63 -126 129 -318 169 -494 72 -322 74 -682 4 -998 -76
-348 -232 -696 -452 -1009 -217 -311 -410 -516 -853 -907 -17 -15 -41 -33 -53
-39 -12 -7 -18 -17 -15 -23 4 -7 3 -8 -4 -4 -7 4 -12 2 -12 -4 0 -6 -4 -9 -9
-6 -5 3 -23 -10 -39 -29 -38 -43 -52 -113 -29 -149 42 -64 258 -40 399 45 40
24 145 98 233 163 184 138 481 426 605 586 373 484 546 979 527 1505 -14 357
-95 663 -272 1030 -67 137 -219 405 -230 405 -3 0 11 -32 31 -72z"/>
<path d="M9656 9939 c-17 -173 -146 -527 -296 -814 -81 -154 -160 -313 -160
-320 0 -4 -13 -25 -29 -48 -16 -23 -46 -69 -66 -102 -21 -33 -56 -84 -79 -114
-67 -87 -275 -292 -361 -357 -44 -32 -85 -66 -92 -74 -7 -8 -13 -11 -13 -6 0
5 -8 0 -17 -11 -10 -11 -23 -18 -29 -16 -6 2 -17 -3 -24 -12 -7 -8 -17 -15
-22 -15 -5 0 -16 -6 -24 -14 -11 -11 -11 -16 -1 -20 6 -3 2 -3 -10 0 -18 4
-24 0 -29 -23 -4 -15 -16 -36 -27 -45 -11 -10 -15 -18 -9 -18 7 0 12 -15 12
-35 0 -21 5 -35 13 -35 7 0 5 -5 -5 -11 -13 -7 -15 -16 -9 -32 8 -25 4 -57 -9
-57 -5 0 -10 10 -12 22 -4 26 -38 38 -38 13 0 -8 7 -18 15 -21 8 -4 15 -12 15
-20 0 -10 6 -11 24 -4 15 5 27 5 35 -3 8 -8 11 -6 11 7 0 12 5 16 19 11 11 -3
24 1 32 11 12 15 11 16 -11 10 -19 -6 -21 -5 -10 3 8 6 22 8 31 5 10 -3 31 9
51 28 19 18 43 38 54 45 10 6 18 16 16 22 -1 6 1 10 6 9 15 -6 114 86 104 96
-4 4 0 6 8 4 8 -2 14 3 12 10 -1 8 2 11 7 8 12 -8 241 221 365 364 353 408
552 796 607 1179 20 139 0 357 -38 426 -8 13 -11 2 -17 -46z m-1172 -1908 c3
-5 -1 -14 -8 -20 -12 -10 -14 -9 -11 6 2 10 4 19 4 21 2 5 10 2 15 -7z m-26
-212 c15 0 21 -3 14 -6 -21 -8 -64 6 -56 19 6 9 9 9 12 0 2 -7 16 -12 30 -13z
m-28 -23 c0 -2 -6 -9 -13 -15 -10 -8 -14 -7 -14 4 0 8 6 15 14 15 7 0 13 -2
13 -4z"/>
<path d="M10930 9704 c-101 -161 -197 -351 -230 -453 -12 -37 -22 -106 -26
-165 -15 -290 -180 -1070 -321 -1525 -55 -180 -86 -255 -124 -303 l-29 -37 38
13 c177 63 402 227 568 416 111 127 178 221 271 380 81 138 126 244 144 341
14 79 7 129 -27 168 -28 33 -21 -17 -118 850 l-52 465 -94 -150z"/>
<path d="M8197 9549 c7 -7 15 -10 18 -7 3 3 -2 9 -12 12 -14 6 -15 5 -6 -5z"/>
<path d="M8289 9512 c6 -12 16 -22 22 -22 5 0 13 -10 18 -22 4 -12 10 -17 14
-11 3 5 -10 25 -30 44 -27 25 -33 28 -24 11z"/>
<path d="M8361 9423 c-10 -11 -10 -18 -2 -26 8 -8 11 -7 11 6 0 11 5 14 16 10
11 -4 12 -9 5 -16 -6 -6 -11 -20 -11 -30 0 -13 -5 -17 -16 -13 -9 3 -18 6 -20
6 -2 0 -4 9 -4 19 0 10 -7 22 -16 25 -25 9 -27 7 -9 -10 9 -9 13 -19 10 -22
-3 -4 -11 0 -16 8 -9 12 -10 12 -5 -3 3 -10 6 -20 6 -23 0 -2 8 0 18 3 15 6
16 5 2 -13 -11 -15 -11 -16 0 -6 21 18 35 15 19 -5 -12 -14 -10 -14 14 1 15
10 27 23 27 29 0 6 3 7 7 4 3 -4 -2 -16 -12 -27 -15 -16 -16 -22 -5 -35 9 -11
16 -12 25 -5 6 5 15 7 18 3 10 -9 9 11 0 23 -5 5 0 1 10 -10 10 -10 20 -16 24
-12 3 3 -2 15 -12 26 -10 11 -13 20 -7 20 7 0 12 -4 12 -10 0 -5 5 -10 12 -10
6 0 3 9 -7 20 -10 12 -24 19 -31 16 -8 -3 -11 0 -8 8 3 8 -5 25 -18 39 -20 21
-25 23 -37 10z"/>
<path d="M8466 9304 c-4 -9 -12 -14 -22 -10 -10 4 -13 2 -8 -6 5 -8 2 -9 -9
-5 -9 3 -19 1 -23 -6 -4 -7 -4 -9 1 -5 5 5 15 -1 22 -12 8 -11 18 -18 23 -15
5 3 12 0 17 -7 4 -7 22 -26 39 -41 l31 -28 -2 34 c-2 43 -59 127 -69 101z"/>
<path d="M8380 8010 c-8 -5 -11 -10 -7 -10 4 0 3 -9 -3 -20 -8 -16 -8 -18 4
-14 8 3 16 16 19 30 2 13 4 24 3 24 0 0 -8 -5 -16 -10z"/>
<path d="M8338 7983 c7 -3 16 -2 19 1 4 3 -2 6 -13 5 -11 0 -14 -3 -6 -6z"/>
<path d="M8310 7945 c0 -9 9 -15 23 -14 19 1 19 2 3 6 -15 4 -16 7 -5 14 11 7
11 9 -3 9 -10 0 -18 -7 -18 -15z"/>
<path d="M8300 7880 c0 -5 5 -10 10 -10 6 0 10 5 10 10 0 6 -4 10 -10 10 -5 0
-10 -4 -10 -10z"/>
<path d="M8313 7715 c0 -8 4 -12 9 -9 5 3 6 10 3 15 -9 13 -12 11 -12 -6z"/>
<path d="M9905 7139 c-211 -12 -400 -41 -512 -80 -31 -10 -90 -41 -132 -68
-89 -57 -397 -213 -526 -266 -50 -21 -106 -46 -125 -56 -72 -39 -163 -79 -176
-79 -8 0 -14 -5 -14 -10 0 -6 10 -8 24 -4 13 3 27 1 30 -5 4 -6 -11 -8 -43 -5
-46 4 -49 3 -53 -21 -4 -17 -1 -25 8 -25 10 0 11 -6 4 -26 -6 -14 -10 -118
-10 -230 0 -201 0 -205 -20 -199 -12 4 -20 2 -20 -5 0 -7 52 -9 173 -6 367 9
573 84 601 216 3 14 32 48 68 78 35 30 86 75 113 101 46 42 170 153 254 226
44 38 142 126 201 179 25 23 83 75 130 116 47 41 87 77 90 80 3 3 28 26 57 53
31 28 45 46 35 46 -9 -1 -80 -6 -157 -10z m-1471 -1077 c-9 -2 -21 2 -28 9 -8
9 -8 10 1 5 6 -3 15 -1 19 5 4 8 9 7 15 -2 6 -9 3 -15 -7 -17z"/>
<path d="M8330 6540 c-13 -8 -13 -10 2 -10 9 0 20 5 23 10 8 13 -5 13 -25 0z"/>
<path d="M8345 6510 c-3 -5 -1 -10 4 -10 6 0 11 5 11 10 0 6 -2 10 -4 10 -3 0
-8 -4 -11 -10z"/>
<path d="M5825 5559 c-341 -53 -515 -252 -515 -588 0 -197 47 -326 154 -430
109 -104 239 -153 458 -173 302 -28 571 38 708 175 106 106 150 231 150 426 0
199 -40 311 -150 422 -73 73 -154 118 -279 151 -61 16 -115 21 -271 24 -107 1
-222 -1 -255 -7z m440 -284 c144 -52 195 -131 195 -304 0 -216 -84 -303 -321
-332 -158 -19 -331 12 -412 74 -18 14 -45 48 -61 77 -24 44 -30 68 -34 145 -9
170 32 261 140 314 88 44 132 50 298 47 107 -3 158 -8 195 -21z"/>
<path d="M2422 4978 c-165 -320 -298 -586 -296 -590 3 -5 80 -8 173 -8 l167 0
60 118 60 117 342 3 342 2 60 -120 60 -120 169 0 c94 0 172 3 174 8 3 4 -131
269 -297 589 l-301 583 -206 0 -207 0 -300 -582z m616 107 c56 -113 102 -207
102 -210 0 -3 -94 -5 -210 -5 -115 0 -210 2 -210 5 0 10 205 415 210 415 3 0
51 -92 108 -205z"/>
<path d="M3837 5554 c-4 -4 -7 -270 -7 -591 l0 -583 160 0 160 0 0 155 0 155
232 -2 231 -3 92 -150 91 -150 182 -3 c142 -2 182 0 182 10 0 7 -44 85 -98
173 l-98 159 56 37 c99 64 150 142 177 274 28 139 -10 284 -99 381 -51 55 -91
82 -173 115 l-60 24 -510 3 c-281 2 -514 0 -518 -4z m914 -274 c95 -18 134
-64 133 -160 -1 -67 -23 -114 -67 -137 -28 -16 -68 -18 -349 -21 l-318 -3 0
165 0 166 274 0 c150 0 298 -5 327 -10z"/>
<path d="M6767 5553 c-3 -5 12 -51 33 -103 20 -52 82 -210 138 -350 55 -140
141 -360 192 -487 l91 -233 214 0 213 0 25 63 c14 34 87 220 162 412 76 193
141 353 145 358 3 4 80 -182 170 -413 l164 -420 216 0 216 0 21 58 c12 31 62
158 111 282 278 705 323 821 317 830 -4 6 -70 10 -169 10 l-164 0 -11 -27 c-6
-16 -78 -210 -161 -433 -83 -223 -155 -408 -159 -413 -4 -4 -86 190 -182 430
l-175 438 -191 3 -191 2 -172 -432 c-95 -238 -176 -437 -179 -441 -4 -4 -62
138 -129 315 -67 178 -141 375 -165 438 l-44 115 -166 3 c-91 1 -168 -1 -170
-5z"/>
<path d="M9517 5518 c-55 -98 -577 -1117 -577 -1128 0 -7 53 -10 173 -8 l172
3 60 117 60 118 340 0 341 0 59 -120 59 -120 173 0 c114 0 173 4 173 10 0 10
-393 776 -542 1058 l-59 112 -204 0 -204 0 -24 -42z m338 -438 l105 -210 -215
0 -215 0 105 210 c58 116 107 210 110 210 3 0 52 -94 110 -210z"/>
<path d="M10650 4970 l0 -591 158 3 157 3 5 416 5 417 380 -419 380 -418 213
0 212 -1 -2 588 -3 587 -155 0 -155 0 -5 -421 -5 -421 -385 423 -385 424 -207
0 -208 0 0 -590z"/>
<path d="M12557 4982 c-163 -318 -297 -584 -297 -590 0 -9 46 -12 170 -12
l170 0 60 120 60 120 343 0 343 0 59 -120 59 -120 173 0 c95 0 173 4 173 9 0
4 -135 269 -299 587 l-300 579 -208 3 -208 2 -298 -578z m618 93 l102 -205
-213 0 c-118 0 -214 2 -214 5 0 8 191 389 203 403 5 7 12 10 15 8 2 -3 51 -98
107 -211z"/>
<path d="M6455 3920 c-126 -16 -210 -46 -252 -92 -53 -56 -67 -151 -34 -223
49 -107 157 -142 504 -165 216 -13 259 -30 243 -94 -11 -43 -52 -51 -271 -51
-180 0 -204 2 -240 20 -26 13 -46 33 -58 58 l-19 37 -99 0 -99 0 0 -42 c1 -98
73 -183 187 -218 158 -49 489 -50 641 -2 118 38 175 109 175 222 0 111 -60
174 -194 205 -38 8 -162 22 -276 31 -115 8 -225 19 -246 25 -66 17 -70 84 -6
106 21 7 96 12 194 12 193 0 251 -14 274 -66 l15 -33 103 0 c100 0 103 1 103
23 0 112 -93 199 -249 233 -83 18 -303 26 -396 14z"/>
<path d="M9060 3924 c-14 -2 -52 -9 -84 -15 -206 -37 -316 -173 -316 -389 0
-216 104 -344 315 -391 84 -19 293 -16 378 4 192 47 285 160 295 357 11 230
-84 366 -290 415 -64 15 -252 27 -298 19z m277 -212 c55 -29 79 -62 94 -128 9
-42 10 -69 1 -115 -13 -72 -40 -112 -95 -142 -38 -20 -57 -22 -177 -22 -124 0
-139 2 -185 25 -71 36 -98 88 -99 189 0 59 5 85 22 118 43 82 103 104 272 100
106 -2 131 -6 167 -25z"/>
<path d="M10100 3921 c-177 -26 -288 -97 -342 -219 -33 -72 -37 -238 -9 -330
25 -83 88 -160 161 -197 186 -94 522 -80 671 29 97 72 148 203 136 356 -15
189 -105 296 -292 345 -71 18 -248 27 -325 16z m303 -210 c71 -35 97 -85 97
-188 0 -106 -25 -157 -95 -193 -42 -21 -66 -26 -160 -29 -208 -6 -288 44 -301
190 -8 80 8 139 47 184 45 51 100 65 244 62 102 -2 127 -6 168 -26z"/>
<path d="M12157 3919 c-112 -12 -201 -44 -246 -87 -99 -94 -73 -260 50 -322
64 -33 154 -49 373 -65 259 -20 299 -34 282 -98 -10 -41 -48 -51 -226 -55
-243 -6 -323 14 -345 87 l-9 32 -101 -3 -100 -3 -3 -27 c-11 -94 70 -193 185
-227 177 -53 476 -53 649 0 91 28 147 83 163 160 22 102 -8 183 -84 226 -62
35 -158 52 -387 69 -117 9 -228 21 -248 27 -32 11 -35 15 -35 52 0 38 2 41 40
53 29 10 88 13 215 10 195 -4 233 -14 253 -69 l11 -29 103 0 c100 0 103 1 103
23 0 93 -73 179 -183 215 -115 38 -298 50 -460 31z"/>
<path d="M3170 3520 l0 -401 103 3 102 3 3 102 3 101 247 4 c271 3 293 8 370
73 76 64 110 197 78 306 -24 84 -64 132 -143 171 l-68 33 -347 3 -348 3 0
-401z m660 195 c58 -30 60 -145 3 -183 -23 -14 -58 -17 -240 -20 l-213 -4 0
111 0 111 210 0 c168 0 217 -3 240 -15z"/>
<path d="M4175 3908 c-3 -7 -4 -186 -3 -398 l3 -385 405 0 405 0 0 90 0 90
-297 3 -298 2 -2 303 -3 302 -103 3 c-76 2 -104 -1 -107 -10z"/>
<path d="M5054 3905 c-3 -8 -4 -126 -2 -262 5 -270 9 -296 67 -375 65 -88 160
-132 327 -150 244 -27 454 37 533 161 54 85 61 130 61 398 l0 243 -105 0 -105
0 0 -210 c0 -115 -5 -232 -11 -260 -22 -104 -107 -150 -274 -150 -167 0 -252
46 -274 150 -6 28 -11 145 -11 260 l0 210 -100 0 c-79 0 -102 -3 -106 -15z"/>
<path d="M7777 3913 c-4 -3 -7 -181 -7 -395 l0 -388 110 0 110 0 0 120 0 120
275 0 275 0 0 90 0 90 -275 0 -275 0 0 90 0 90 308 2 307 3 3 93 3 92 -414 0
c-227 0 -417 -3 -420 -7z"/>
<path d="M10815 3907 c-3 -6 -4 -185 -3 -397 l3 -385 280 -3 c302 -3 390 5
470 42 145 67 226 244 196 428 -30 183 -134 289 -311 317 -97 16 -629 14 -635
-2z m655 -202 c53 -31 80 -92 80 -185 0 -93 -27 -154 -80 -185 -31 -18 -56
-20 -242 -23 l-208 -3 0 211 0 211 208 -3 c186 -3 211 -5 242 -23z"/>
</g>
</svg>
